General
Unique ID                       : 239752098032518903178145533313999264597 (0xB45E93115234870DB582B9131BD15B55)
Complete name                   :Age-2 The Meltdown (2006)  m-HD  480p  AC3  Hindi  BHATTI87\Ice Age-2 The Meltdown (2006)  m-HD  480p  AC3  Hindi  BHATTI87.mkv
Format                          : Matroska
File size                       : 493 MiB
Duration                        : 1h 26mn
Overall bit rate                : 793 Kbps
Encoded date                    : UTC 2011-08-04 18:29:55
Writing application             : mkvmerge v4.6.0 ('Still Crazy After All These Years') built on Mar 10 2011 02:50:32
Writing library                 : libebml v1.2.0 + libmatroska v1.1.0

Video
ID                              : 1
Format                          : AVC
Format/Info                     : Advanced Video Codec
Format profile                  : High@L3.1
Format settings, CABAC          : Yes
Format settings, ReFrames       : 5 frames
Codec ID                        : V_MPEG4/ISO/AVC
Duration                        : 1h 26mn
Bit rate                        : 663 Kbps
Width                           : 848 pixels
Height                          : 368 pixels
Display aspect ratio            : 2.35:1
Frame rate                      : 23.976 fps
Color space                     : YUV
Chroma subsampling              : 4:2:0
Bit depth                       : 8 bits
Scan type                       : Progressive
Bits/(Pixel*Frame)              : 0.089
Stream size                     : 403 MiB (82%)
Writing library                 : x264 core 114 r1924 08d04a4

Audio
ID                              : 2
Format                          : AC-3
Format/Info                     : Audio Coding 3
Mode extension                  : CM (complete main)
Codec ID                        : A_AC3
Duration                        : 1h 26mn
Bit rate mode                   : Constant
Bit rate                        : 128 Kbps
Channel(s)                      : 2 channels
Channel positions               : Front: L R
Sampling rate                   : 44.1 KHz
Bit depth                       : 16 bits
Compression mode                : Lossy
Delay relative to video         : 1s 0ms
Stream size                     : 79.6 MiB (16%)
Language                        : Hindi


all credits to BHATTI87

Sample Included.

SCreens: 
http://www.leetleech.org/images/77693956106427252151.jpg 
http://www.leetleech.org/images/12487494836051313401.jpg 
http://www.leetleech.org/images/29278752381117585588.jpg 
http://www.leetleech.org/images/66579386461952220132.jpg 
http://www.leetleech.org/images/70614242001342684545.jpg 
http://www.leetleech.org/images/71155142867223485434.jpg 
http://www.leetleech.org/images/57388850081544724114.jpg 
http://www.leetleech.org/images/15350424989115843921.jpg

 ~ Seed 4 others,Others would seed 4 u ~
         Be a Gentleman!!

    ______            ______   _______    
   (  __  \ |\     /|(  __  \ (  ____ \   
   | (  \  )| )   ( || (  \  )| (    \/   
   | |   ) || |   | || |   ) || (__       
   | |   | || |   | || |   | ||  __)      
   | |   ) || |   | || |   ) || (         
 _ | (__/  )| (___) || (__/  )| (____/\ _ 
(_)(______/ (_______)(______/ (_______/(_)


A simple THANKS goes a long way... :-)
Any comments would b appreciated.